<svg width="512" height="512" viewBox="0 0 512 512" fill="none" xmlns="http://www.w3.org/2000/svg">
<path d="M255.625 9.6875C256.596 9.68966 257.566 9.69181 258.566 9.69403C272.894 9.74507 286.922 10.0924 301 13C301.983 13.1987 302.966 13.3974 303.979 13.6021C352.344 23.6609 394.671 46.5995 430 81C430.936 81.8959 431.872 82.7918 432.836 83.7148C438.719 89.4443 443.925 95.5509 449 102C449.768 102.94 450.537 103.879 451.328 104.848C485.471 147.527 502.53 201.372 502.312 255.625C502.31 256.596 502.308 257.566 502.306 258.566C502.255 272.894 501.908 286.922 499 301C498.801 301.983 498.603 302.966 498.398 303.979C490.25 343.158 473.704 380.18 448 411C447.537 411.565 447.073 412.13 446.596 412.712C435.634 426.057 423.684 438.427 410 449C408.548 450.178 408.548 450.178 407.066 451.379C377.793 474.921 341.491 490.74 304.812 498.25C304.078 498.401 303.344 498.552 302.588 498.708C287.208 501.658 271.998 502.375 256.375 502.312C255.404 502.31 254.434 502.308 253.434 502.306C239.106 502.255 225.078 501.908 211 499C209.525 498.702 209.525 498.702 208.021 498.398C168.631 490.206 132.176 473.529 101 448C100.452 447.554 99.9043 447.107 99.3398 446.647C85.9676 435.689 73.5868 423.694 63 410C62.2382 409.067 61.4763 408.133 60.6914 407.172C26.5173 364.523 9.47047 310.615 9.6875 256.375C9.68966 255.404 9.69181 254.434 9.69403 253.434C9.74507 239.106 10.0924 225.078 13 211C13.1987 210.017 13.3974 209.034 13.6021 208.021C23.6609 159.656 46.5995 117.329 81 82C81.8959 81.0641 82.7918 80.1283 83.7148 79.1641C89.4443 73.2808 95.5509 68.0753 102 63C102.94 62.2317 103.879 61.4634 104.848 60.6719C147.527 26.5288 201.372 9.47042 255.625 9.6875ZM249 32C249 40.58 249 49.16 249 58C244.71 58 240.42 58 236 58C232.801 58.2925 229.723 58.6252 226.562 59.125C225.727 59.2548 224.891 59.3846 224.03 59.5183C202.138 63.1622 181.514 70.5661 162 81C161.394 81.3223 160.788 81.6445 160.164 81.9766C114.461 106.524 80.5919 149.398 65.4961 198.809C64.2158 203.178 63.0751 207.576 62 212C61.5553 213.804 61.5553 213.804 61.1016 215.645C57.7808 230.555 56.1511 246.738 57 262C57.0411 262.777 57.0822 263.554 57.1245 264.354C60.2182 318.31 83.356 367.359 123 404C126.561 407.15 130.224 410.112 134 413C135.011 413.777 136.021 414.555 137.062 415.355C169.174 439.45 208.767 454 249 454C249 462.58 249 471.16 249 480C298.876 481.076 347.957 464.098 387 433C388.466 431.842 388.466 431.842 389.961 430.66C405.981 417.708 420.126 402.813 432 386C432.43 385.409 432.861 384.818 433.304 384.209C452.126 358.332 463.784 328.209 470 297C470.178 296.134 470.356 295.267 470.539 294.375C475.887 267.175 474.661 236.99 469 210C468.694 208.532 468.694 208.532 468.383 207.034C457.134 155.119 425.445 105.871 382 75C381.369 74.5414 380.739 74.0828 380.089 73.6104C341.847 45.9962 296.14 30.9826 249 32Z" fill="#CCCCCC"/>
<path d="M283 162C292.57 162 302.14 162 312 162C312 182.114 312 202.229 312 222.952C327.18 222.952 342.36 222.952 358 222.952C358 202.838 358 182.724 358 162C367.57 162 377.14 162 387 162C387 214.8 387 267.6 387 322C377.43 322 367.86 322 358 322C358 300 358 278 358 255.333C342.82 255.333 327.64 255.333 312 255.333C312 277.333 312 299.333 312 322C302.43 322 292.86 322 283 322C283 269.2 283 216.4 283 162Z" fill="#007C7F"/>
<path d="M253 58C302.446 56.0624 351.115 76.5329 387.312 109.625C389.221 111.404 391.111 113.2 393 115C393.779 115.726 394.557 116.451 395.359 117.199C430.193 150.612 450.392 200.772 451.436 248.585C452.283 304.89 432.789 356.226 393.445 396.789C379.187 411.195 362.833 422.52 345 432C343.859 432.617 342.718 433.235 341.543 433.871C314.506 448.004 283.494 455.195 253 454C253 450.04 253 446.08 253 442C255.918 441.745 255.918 441.745 258.895 441.484C305.288 437.257 346.847 422.866 381 390C381.501 389.525 382.002 389.05 382.518 388.56C395.272 376.418 405.085 363.156 414 348C414.358 347.395 414.717 346.789 415.086 346.166C438.934 305.339 444.305 254.682 432.688 209.188C424.325 178.458 408.936 151.083 387 128C386.283 127.242 386.283 127.242 385.551 126.469C369.248 109.348 350.362 97.0024 329 87C327.885 86.4663 326.77 85.9327 325.621 85.3828C302.517 74.8537 278.041 71.8903 253 70C253 66.04 253 62.08 253 58Z" fill="#CCCCCC"/>
<path d="M242.377 162.636V319H213.822L145.795 220.586H144.65V319H111.59V162.636H140.603L208.096 260.974H209.47V162.636H242.377Z" fill="#007C7F"/>
</svg>
